<svg width="28" height="28" viewBox="0 0 28 28" fill="none" xmlns="http://www.w3.org/2000/svg">
<path d="M7.7004 10.5H20.3004M7.7004 10.5C7.04701 10.5 6.7195 10.5 6.46993 10.6272C6.25041 10.739 6.07206 10.9174 5.96021 11.1369C5.83305 11.3864 5.83305 11.7134 5.83305 12.3668V18.4334C5.83305 19.7402 5.83305 20.3937 6.08737 20.8929C6.31108 21.3319 6.66777 21.6889 7.10682 21.9126C7.60545 22.1667 8.25854 22.1667 9.56278 22.1667H18.4362C19.7405 22.1667 20.3926 22.1667 20.8913 21.9126C21.3303 21.6889 21.6886 21.3319 21.9123 20.8928C22.1664 20.3942 22.1664 19.7419 22.1664 18.4377V12.3562C22.1664 11.7098 22.1664 11.3851 22.0399 11.1369C21.9281 10.9174 21.7489 10.739 21.5294 10.6272C21.2798 10.5 20.9538 10.5 20.3004 10.5M7.7004 10.5H5.80424C4.81363 10.5 4.31862 10.5 4.03748 10.3268C3.6623 10.0957 3.44957 9.67259 3.48719 9.23355C3.5154 8.90427 3.81025 8.50604 4.40092 7.70863C4.57176 7.47799 4.65721 7.36264 4.76178 7.27458C4.90121 7.15715 5.06667 7.07376 5.24402 7.03161C5.37704 7 5.51981 7 5.80685 7H22.192C22.479 7 22.6221 7 22.7552 7.03161C22.9325 7.07376 23.0979 7.15715 23.2373 7.27458C23.3419 7.36264 23.4277 7.47745 23.5985 7.70809C24.1892 8.50549 24.4845 8.90421 24.5127 9.23349C24.5503 9.67253 24.3369 10.0957 23.9617 10.3268C23.6805 10.5 23.1843 10.5 22.1937 10.5H20.3004M11.6664 16.3333H16.3331" stroke="#B397AE" stroke-width="2" stroke-linecap="round" stroke-linejoin="round"/>
</svg>
