<svg width="28" height="28" viewBox="0 0 28 28" fill="none" xmlns="http://www.w3.org/2000/svg">
<path d="M2.33334 23.3333H4.66667M4.66667 23.3333H16.3333M4.66667 23.3333V7.23356C4.66667 5.92677 4.66667 5.27289 4.92099 4.77376C5.14469 4.33472 5.50139 3.97802 5.94043 3.75432C6.43956 3.5 7.09344 3.5 8.40023 3.5H12.6002C13.907 3.5 14.5595 3.5 15.0586 3.75432C15.4977 3.97802 15.8556 4.33472 16.0793 4.77376C16.3333 5.2724 16.3333 5.92549 16.3333 7.22973V14M16.3333 23.3333H23.3333M16.3333 23.3333V14M23.3333 23.3333H25.6667M23.3333 23.3333V14C23.3333 12.9128 23.3332 12.3695 23.1556 11.9407C22.9188 11.3689 22.465 10.9144 21.8932 10.6776C21.4644 10.5 20.9202 10.5 19.833 10.5C18.7458 10.5 18.2022 10.5 17.7734 10.6776C17.2017 10.9144 16.7478 11.3689 16.5109 11.9407C16.3333 12.3695 16.3333 12.9128 16.3333 14M8.16667 11.6667H12.8333M8.16667 8.16667H12.8333" stroke="#3A404A" stroke-width="2" stroke-linecap="round" stroke-linejoin="round"/>
</svg>
