<svg width="28" height="28" viewBox="0 0 28 28" fill="none" xmlns="http://www.w3.org/2000/svg">
<path d="M2.33333 23.3333H4.66666M4.66666 23.3333H14M4.66666 23.3333V8.40019C4.66666 7.0934 4.66666 6.43952 4.92098 5.94039C5.14468 5.50134 5.50138 5.14465 5.94042 4.92094C6.43955 4.66663 7.09343 4.66663 8.40022 4.66663H10.2669C11.5737 4.66663 12.2267 4.66663 12.7259 4.92094C13.1649 5.14465 13.5222 5.50134 13.7459 5.94039C14 6.43903 14 7.09212 14 8.39635V11.9537M14 23.3333H23.3333M14 23.3333V11.9537M23.3333 23.3333H25.6667M23.3333 23.3333V16.7628C23.3333 16.1501 23.3333 15.8432 23.2598 15.5574C23.1947 15.3041 23.0871 15.0638 22.9421 14.846C22.7786 14.6003 22.5511 14.3952 22.0951 13.9856L19.4118 11.5749C18.5298 10.7825 18.0886 10.3865 17.59 10.2362C17.1508 10.1038 16.6822 10.1038 16.243 10.2362C15.7445 10.3865 15.3035 10.7827 14.4217 11.5749L14 11.9537" stroke="#E4686A" stroke-width="2.5" stroke-linecap="round" stroke-linejoin="round"/>
</svg>
