<svg width="28" height="28" viewBox="0 0 28 28" fill="none" xmlns="http://www.w3.org/2000/svg">
<path d="M3.5 17.499V19.5987C3.5 20.9055 3.5 21.5584 3.75432 22.0576C3.97802 22.4966 4.33472 22.8543 4.77376 23.078C5.2724 23.332 5.92549 23.332 7.22973 23.332H24.5002M3.5 17.499V5.83203M3.5 17.499L7.99563 13.7526L7.99935 13.7496C8.81261 13.0719 9.22003 12.7324 9.6618 12.5945C10.1837 12.4316 10.7458 12.4573 11.2508 12.6668C11.6789 12.8444 12.0543 13.2198 12.8051 13.9706L12.8126 13.9781C13.575 14.7405 13.9572 15.1227 14.3922 15.2999C14.9069 15.5096 15.48 15.5277 16.0075 15.3527C16.4547 15.2043 16.8632 14.8475 17.68 14.1328L24.5 8.16536" stroke="#B397AE" stroke-width="2" stroke-linecap="round" stroke-linejoin="round"/>
</svg>
