<svg width="28" height="28" viewBox="0 0 28 28" fill="none" xmlns="http://www.w3.org/2000/svg">
<path d="M10.5 17.5L12.8333 19.8333L17.5 15.1667M15.1666 3.50101C15.0552 3.5 14.9301 3.5 14.7871 3.5H9.56687C8.26009 3.5 7.6062 3.5 7.10708 3.75432C6.66803 3.97802 6.31134 4.33472 6.08763 4.77376C5.83331 5.27289 5.83331 5.92677 5.83331 7.23356V20.7669C5.83331 22.0737 5.83331 22.7267 6.08763 23.2259C6.31134 23.6649 6.66803 24.0222 7.10708 24.2459C7.60572 24.5 8.25882 24.5 9.56308 24.5L18.4369 24.5C19.7412 24.5 20.3933 24.5 20.8919 24.2459C21.331 24.0222 21.6889 23.6649 21.9126 23.2259C22.1666 22.7272 22.1666 22.0751 22.1666 20.7708V10.88C22.1666 10.7368 22.1666 10.6115 22.1656 10.5M15.1666 3.50101C15.4999 3.50405 15.7107 3.51615 15.912 3.56447C16.15 3.62163 16.3775 3.71614 16.5862 3.84408C16.8216 3.98833 17.0238 4.19046 17.4271 4.59375L21.0735 8.24015C21.477 8.6437 21.6777 8.84492 21.822 9.08039C21.9499 9.28916 22.0445 9.5168 22.1017 9.75488C22.15 9.95605 22.1624 10.1669 22.1656 10.5M15.1666 3.50101V6.76667C15.1666 8.07346 15.1666 8.7264 15.421 9.22552C15.6447 9.66457 16.0014 10.0222 16.4404 10.2459C16.939 10.5 17.5921 10.5 18.8964 10.5H22.1656M22.1656 10.5H22.1669" stroke="#B397AE" stroke-width="2" stroke-linecap="round" stroke-linejoin="round"/>
</svg>
