<svg width="24" height="24" viewBox="0 0 24 24" fill="none" xmlns="http://www.w3.org/2000/svg">
<path d="M2 19.9986H4M4 19.9986H10M4 19.9986V11.4508C4 10.9164 4 10.6491 4.06497 10.4005C4.12255 10.1801 4.21779 9.97161 4.3457 9.78318C4.49004 9.57055 4.69064 9.39423 5.09277 9.04236L9.89436 4.84097C10.6398 4.18868 11.0126 3.86251 11.4324 3.73836C11.8026 3.62888 12.1972 3.62888 12.5674 3.73836C12.9875 3.8626 13.3608 4.18908 14.1074 4.84236L18.9074 9.04236C19.3095 9.39422 19.5102 9.57055 19.6546 9.78318C19.7825 9.9716 19.877 10.1801 19.9346 10.4005C19.9995 10.6491 20 10.9164 20 11.4508V19.9986M10 19.9986H14M10 19.9986V15.9986C10 14.894 10.8954 13.9986 12 13.9986C13.1046 13.9986 14 14.894 14 15.9986V19.9986M14 19.9986H20M20 19.9986H22" stroke="#B397AE" stroke-width="2" stroke-linecap="round" stroke-linejoin="round"/>
</svg>
