<svg width="16" height="16" viewBox="0 0 16 16" fill="none" xmlns="http://www.w3.org/2000/svg">
<g clip-path="url(#clip0_3594_470)">
<path d="M11.6667 4.3335H11.6733M4.66666 1.3335H11.3333C13.1743 1.3335 14.6667 2.82588 14.6667 4.66683V11.3335C14.6667 13.1744 13.1743 14.6668 11.3333 14.6668H4.66666C2.82571 14.6668 1.33333 13.1744 1.33333 11.3335V4.66683C1.33333 2.82588 2.82571 1.3335 4.66666 1.3335ZM10.6667 7.58016C10.7489 8.13499 10.6542 8.70164 10.3958 9.19951C10.1375 9.69737 9.72876 10.1011 9.22775 10.3533C8.72673 10.6055 8.15896 10.6932 7.60519 10.6041C7.05141 10.515 6.53984 10.2536 6.14322 9.85694C5.74661 9.46032 5.48515 8.94875 5.39604 8.39497C5.30693 7.8412 5.3947 7.27343 5.64688 6.77241C5.89905 6.2714 6.30279 5.86266 6.80065 5.60432C7.29852 5.34599 7.86516 5.25122 8.41999 5.3335C8.98594 5.41742 9.5099 5.68114 9.91446 6.0857C10.319 6.49026 10.5827 7.01421 10.6667 7.58016Z" stroke="#E4686A" stroke-width="1.2" stroke-linecap="round" stroke-linejoin="round"/>
</g>
<defs>
<clipPath id="clip0_3594_470">
<rect width="16" height="16" fill="white"/>
</clipPath>
</defs>
</svg>
