<svg width="16" height="16" viewBox="0 0 16 16" fill="none" xmlns="http://www.w3.org/2000/svg">
<path d="M10.6667 5.3335C11.7275 5.3335 12.7449 5.75492 13.4951 6.50507C14.2452 7.25521 14.6667 8.27263 14.6667 9.3335V14.0002H12V9.3335C12 8.97987 11.8595 8.64074 11.6095 8.39069C11.3594 8.14064 11.0203 8.00016 10.6667 8.00016C10.313 8.00016 9.9739 8.14064 9.72385 8.39069C9.4738 8.64074 9.33333 8.97987 9.33333 9.3335V14.0002H6.66666V9.3335C6.66666 8.27263 7.08809 7.25521 7.83823 6.50507C8.58838 5.75492 9.6058 5.3335 10.6667 5.3335Z" stroke="#E4686A" stroke-width="1.2" stroke-linecap="round" stroke-linejoin="round"/>
<path d="M3.99999 6.00016H1.33333V14.0002H3.99999V6.00016Z" stroke="#E4686A" stroke-width="1.2" stroke-linecap="round" stroke-linejoin="round"/>
<path d="M2.66666 4.00016C3.40304 4.00016 3.99999 3.40321 3.99999 2.66683C3.99999 1.93045 3.40304 1.3335 2.66666 1.3335C1.93028 1.3335 1.33333 1.93045 1.33333 2.66683C1.33333 3.40321 1.93028 4.00016 2.66666 4.00016Z" stroke="#E4686A" stroke-width="1.2" stroke-linecap="round" stroke-linejoin="round"/>
</svg>
