<svg width="16" height="16" viewBox="0 0 16 16" fill="none" xmlns="http://www.w3.org/2000/svg">
<path d="M2.66667 4.00016L6.73842 7.07501L6.73978 7.07613C7.1919 7.40769 7.41809 7.57356 7.66584 7.63764C7.88482 7.69428 8.115 7.69428 8.33398 7.63764C8.58195 7.5735 8.8088 7.40714 9.26172 7.07501C9.26172 7.07501 11.8734 5.07079 13.3333 4.00016M2 10.5336V5.46696C2 4.72022 2 4.34658 2.14532 4.06136C2.27316 3.81048 2.47698 3.60665 2.72786 3.47882C3.01308 3.3335 3.38673 3.3335 4.13346 3.3335H11.8668C12.6135 3.3335 12.9864 3.3335 13.2716 3.47882C13.5225 3.60665 13.727 3.81048 13.8548 4.06136C14 4.3463 14 4.71949 14 5.46477V10.5359C14 11.2812 14 11.6538 13.8548 11.9388C13.727 12.1896 13.5225 12.3938 13.2716 12.5216C12.9867 12.6668 12.614 12.6668 11.8687 12.6668H4.13127C3.386 12.6668 3.0128 12.6668 2.72786 12.5216C2.47698 12.3938 2.27316 12.1896 2.14532 11.9388C2 11.6535 2 11.2804 2 10.5336Z" stroke="#E4686A" stroke-width="1.5" stroke-linecap="round" stroke-linejoin="round"/>
</svg>
