<svg width="16" height="16" viewBox="0 0 16 16" fill="none" xmlns="http://www.w3.org/2000/svg">
<path d="M3.33334 6.61523C3.33334 9.84978 6.16299 12.5246 7.41547 13.5501C7.59472 13.6969 7.68542 13.7712 7.81915 13.8088C7.92328 13.8381 8.07654 13.8381 8.18067 13.8088C8.31466 13.7711 8.40472 13.6976 8.58465 13.5502C9.83712 12.5247 12.6666 9.85008 12.6666 6.61553C12.6666 5.39145 12.175 4.21737 11.2998 3.35181C10.4246 2.48626 9.23774 2 8.00006 2C6.76239 2 5.57535 2.48634 4.70018 3.35189C3.82501 4.21744 3.33334 5.39116 3.33334 6.61523Z" stroke="#E4686A" stroke-width="1.5" stroke-linecap="round" stroke-linejoin="round"/>
<path d="M6.66668 6C6.66668 6.73638 7.26363 7.33333 8.00001 7.33333C8.73639 7.33333 9.33334 6.73638 9.33334 6C9.33334 5.26362 8.73639 4.66667 8.00001 4.66667C7.26363 4.66667 6.66668 5.26362 6.66668 6Z" stroke="#E4686A" stroke-width="1.5" stroke-linecap="round" stroke-linejoin="round"/>
</svg>
