<svg width="28" height="28" viewBox="0 0 28 28" fill="none" xmlns="http://www.w3.org/2000/svg">
<path d="M9.33335 4.66797H8.40025C7.09346 4.66797 6.43958 4.66797 5.94045 4.92229C5.50141 5.14599 5.14471 5.50269 4.92101 5.94173C4.66669 6.44086 4.66669 7.09474 4.66669 8.40153V19.6015C4.66669 20.9083 4.66669 21.5614 4.92101 22.0605C5.14471 22.4995 5.50141 22.8569 5.94045 23.0806C6.43909 23.3346 7.09218 23.3346 8.39642 23.3346H9.33335M9.33335 4.66797H19.6002C20.907 4.66797 21.5595 4.66797 22.0586 4.92229C22.4977 5.14599 22.8556 5.50269 23.0793 5.94173C23.3334 6.44037 23.3334 7.09346 23.3334 8.3977V19.6055C23.3334 20.9097 23.3334 21.5619 23.0793 22.0605C22.8556 22.4995 22.4977 22.8569 22.0586 23.0806C21.56 23.3346 20.9079 23.3346 19.6036 23.3346H9.33335M9.33335 4.66797V23.3346M14 12.8346H18.6667M14 9.33464H18.6667" stroke="#B397AE" stroke-width="2" stroke-linecap="round" stroke-linejoin="round"/>
</svg>
