<svg width="84" height="84" viewBox="0 0 84 84" fill="none" xmlns="http://www.w3.org/2000/svg">
<g clip-path="url(#clip0_3139_8327)">
<path d="M57.2248 23.6443L13.9803 39.2124C13.5441 39.3684 13.1613 39.6451 12.8763 40.0103C12.5914 40.3756 12.4162 40.8143 12.3711 41.2753C12.3259 41.7363 12.4127 42.2007 12.6214 42.6142C12.83 43.0278 13.1519 43.3735 13.5496 43.6112L30.3232 53.6768L40.3888 70.4504C40.6258 70.8489 40.9714 71.1717 41.3851 71.381C41.7988 71.5903 42.2636 71.6774 42.725 71.6322C43.1865 71.587 43.6255 71.4114 43.9908 71.1258C44.356 70.8403 44.6324 70.4566 44.7876 70.0197L60.3557 26.7752C60.5131 26.3384 60.543 25.8657 60.4418 25.4125C60.3406 24.9593 60.1125 24.5442 59.7841 24.2159C59.4558 23.8875 59.0407 23.6594 58.5875 23.5582C58.1343 23.457 57.6616 23.4869 57.2248 23.6443ZM41.9283 63.5106L37.5727 56.2524L42.4853 41.5147L27.7476 46.4273L20.4894 42.0717L53.9901 30.0099L41.9283 63.5106Z" fill="#8197E5"/>
</g>
<defs>
<clipPath id="clip0_3139_8327">
<rect width="58.7107" height="58.7107" fill="white" transform="translate(0.970581 41.5147) rotate(-45)"/>
</clipPath>
</defs>
</svg>
