<svg width="29" height="28" viewBox="0 0 29 28" fill="none" xmlns="http://www.w3.org/2000/svg">
<path d="M20.3333 23.3334C20.3333 21.4004 17.7217 19.8334 14.5 19.8334C11.2783 19.8334 8.66667 21.4004 8.66667 23.3334M25 19.8338C25 18.3986 23.5602 17.1651 21.5 16.625M4 19.8338C4 18.3986 5.43978 17.1651 7.5 16.625M21.5 11.9422C22.216 11.3013 22.6667 10.37 22.6667 9.33337C22.6667 7.40038 21.0997 5.83337 19.1667 5.83337C18.2703 5.83337 17.4525 6.17037 16.8333 6.72458M7.5 11.9422C6.78396 11.3013 6.33333 10.37 6.33333 9.33337C6.33333 7.40038 7.90034 5.83337 9.83333 5.83337C10.7297 5.83337 11.5475 6.17037 12.1667 6.72458M14.5 16.3334C12.567 16.3334 11 14.7664 11 12.8334C11 10.9004 12.567 9.33337 14.5 9.33337C16.433 9.33337 18 10.9004 18 12.8334C18 14.7664 16.433 16.3334 14.5 16.3334Z" stroke="#E4686A" stroke-width="2.5" stroke-linecap="round" stroke-linejoin="round"/>
</svg>
