<svg width="105" height="74" viewBox="0 0 105 74" fill="none" xmlns="http://www.w3.org/2000/svg">
<path d="M9.22167 67.076V52H6.75V67.076H9.22167Z" fill="#152C4F"/>
<path d="M10.7345 62.0507C10.7345 65.1307 12.801 67.3191 15.9412 67.3191C19.0814 67.3191 21.1479 65.1307 21.1479 62.0507C21.1479 58.9706 19.0814 56.7822 15.9412 56.7822C12.801 56.7822 10.7345 58.9706 10.7345 62.0507ZM13.2264 62.0507C13.2264 60.2472 14.3002 58.9909 15.9412 58.9909C17.5822 58.9909 18.656 60.2472 18.656 62.0507C18.656 63.8338 17.5822 65.1104 15.9412 65.1104C14.3002 65.1104 13.2264 63.8338 13.2264 62.0507Z" fill="#152C4F"/>
<path d="M21.9792 61.8476C21.9792 64.7656 23.8633 66.873 26.6794 66.873C28.1381 66.873 29.3942 66.2853 30.0222 65.3127V67.0148C30.0222 68.6561 28.989 69.7504 27.2669 69.7504C25.7272 69.7504 24.6737 69.0006 24.5319 67.6835H22.04C22.3641 70.2975 24.3698 71.9996 27.1251 71.9996C30.3667 71.9996 32.4331 69.8719 32.4331 66.569V57.0655H30.2451L30.1033 58.4231C29.4955 57.3694 28.2394 56.7412 26.7604 56.7412C23.9038 56.7412 21.9792 58.9094 21.9792 61.8476ZM24.4914 61.7868C24.4914 60.1252 25.5449 58.9094 27.1049 58.9094C28.8067 58.9094 29.9412 60.1455 29.9412 61.7868C29.9412 63.4484 28.8067 64.725 27.1049 64.725C25.5651 64.725 24.4914 63.4687 24.4914 61.7868Z" fill="#152C4F"/>
<path d="M33.6563 62.0507C33.6563 65.1307 35.7228 67.3191 38.863 67.3191C42.0032 67.3191 44.0697 65.1307 44.0697 62.0507C44.0697 58.9706 42.0032 56.7822 38.863 56.7822C35.7228 56.7822 33.6563 58.9706 33.6563 62.0507ZM36.1482 62.0507C36.1482 60.2472 37.222 58.9909 38.863 58.9909C40.504 58.9909 41.5778 60.2472 41.5778 62.0507C41.5778 63.8338 40.504 65.1104 38.863 65.1104C37.222 65.1104 36.1482 63.8338 36.1482 62.0507Z" fill="#152C4F"/>
<path d="M46.7446 55.0193C47.555 55.0193 48.2236 54.3708 48.2236 53.54C48.2236 52.7295 47.555 52.0811 46.7446 52.0811C45.914 52.0811 45.2859 52.7295 45.2859 53.54C45.2859 54.3708 45.914 55.0193 46.7446 55.0193ZM45.5088 67.076H47.9805V57.0659H45.5088V67.076Z" fill="#152C4F"/>
<path d="M50.1459 71.7161H52.5567V65.6979C53.1848 66.7313 54.5422 67.3392 56.0414 67.3392C58.9993 67.3392 60.7619 65.0697 60.7213 61.9491C60.6606 58.8083 58.8575 56.7617 56.0211 56.7617C54.5017 56.7617 53.124 57.4304 52.5162 58.5854L52.3744 57.0657H50.1459V71.7161ZM52.658 62.0707C52.658 60.2673 53.7521 59.0109 55.4741 59.0109C57.1962 59.0109 58.2294 60.2875 58.2294 62.0707C58.2294 63.8539 57.1962 65.1102 55.4741 65.1102C53.7521 65.1102 52.658 63.8742 52.658 62.0707Z" fill="#152C4F"/>
<path d="M61.3489 64.0768C61.43 66.0626 62.9697 67.3392 65.3603 67.3392C67.7104 67.3392 69.3109 66.0829 69.3109 64.1376C69.3109 62.6989 68.4195 61.7262 66.7785 61.321L65.0159 60.8954C64.2663 60.6928 63.7598 60.4294 63.7598 59.781C63.7598 59.092 64.3068 58.6057 65.1982 58.6057C66.1302 58.6057 66.738 59.1325 66.738 60.0039H68.9868C68.9057 58.018 67.4268 56.7617 65.259 56.7617C63.1115 56.7617 61.511 58.018 61.511 59.9228C61.511 61.2197 62.2606 62.2936 64.1853 62.8002L65.9276 63.246C66.5759 63.4284 66.9811 63.7323 66.9811 64.2997C66.9811 65.09 66.2315 65.4547 65.3198 65.4547C64.2258 65.4547 63.5977 64.9481 63.5977 64.0768H61.3489Z" fill="#152C4F"/>
<path d="M74.4377 67.3389C75.7951 67.3389 77.0917 66.7107 77.6792 65.7786L77.8413 67.0755H80.1509V57.0654H77.6792V62.3136C77.6792 64.117 76.9904 65.1302 75.3697 65.1302C74.1136 65.1302 73.2424 64.5223 73.2424 62.4554V57.0654H70.7707V63.3268C70.7707 65.7178 72.0673 67.3389 74.4377 67.3389Z" fill="#152C4F"/>
<path d="M84.8041 67.0758V61.321C84.8041 59.6999 85.7563 58.9299 86.9314 58.9299C88.1064 58.9299 88.8763 59.6796 88.8763 61.0981V67.0758H91.2872V61.3412C91.2872 59.6999 92.2191 58.9299 93.3942 58.9299C94.5895 58.9299 95.3594 59.6796 95.3594 61.0981V67.0758H97.75V60.5307C97.75 58.2207 96.4736 56.7617 94.0425 56.7617C92.523 56.7617 91.3277 57.4912 90.8415 58.6665C90.2945 57.4912 89.2005 56.7617 87.5392 56.7617C86.3641 56.7617 85.3106 57.3088 84.7231 58.2004L84.6015 57.0657H82.3325V67.0758H84.8041Z" fill="#152C4F"/>
<path d="M46.237 38.3523C42.9808 44.2121 36.3509 47 29.6471 47H2.75C30.75 43.5 50.25 29.5 52.75 10C55.25 29.5 74.75 43.5 102.75 47H75.8529C69.1491 47 62.5192 44.2121 59.263 38.3523C55.7386 32.01 53.4932 24.8334 52.75 17C52.0068 24.8334 49.7614 32.01 46.237 38.3523Z" fill="#1A4688"/>
<path d="M30.8551 36.2813C29.2844 37.1656 27.6322 37.9962 25.9022 38.7699C24.9195 35.3753 24.5579 31.8138 24.8463 28.266C25.2278 23.5725 26.7351 19.0476 29.2347 15.0923C31.7344 11.137 35.1491 7.87319 39.1765 5.59008C43.2039 3.30698 47.7197 2.07501 52.3238 2.00332C56.9279 1.93162 61.4782 3.02241 65.5717 5.17906C69.6652 7.3357 73.1755 10.4916 75.7916 14.3673C78.4078 18.243 80.0491 22.7188 80.5702 27.3982C80.9963 31.2257 80.6623 35.0929 79.5978 38.7699C77.8678 37.9962 76.2156 37.1655 74.6449 36.2812C75.3071 33.593 75.4927 30.7964 75.1842 28.0256C74.764 24.2521 73.4404 20.6428 71.3308 17.5175C69.2211 14.3922 66.3904 11.8472 63.0894 10.1081C59.7884 8.36897 56.119 7.48937 52.4063 7.54718C48.6935 7.60499 45.052 8.59845 41.8044 10.4395C38.5567 12.2806 35.803 14.9125 33.7873 18.1021C31.7716 21.2917 30.5561 24.9405 30.2485 28.7254C30.0417 31.2694 30.2493 33.8222 30.8551 36.2813Z" fill="#7FB5E6"/>
</svg>
