<svg width="126" height="40" viewBox="0 0 126 40" fill="none" xmlns="http://www.w3.org/2000/svg">
<g clip-path="url(#clip0_3052_2459)">
<path d="M89.111 37.2245C89.87 37.2245 90.319 36.6495 90.319 35.7505C90.319 34.8185 89.837 34.2765 89.127 34.2765C88.721 34.2765 88.439 34.4565 88.228 34.7425H88.218V33.2695H87.778V37.1425H88.218V36.7745H88.228C88.456 37.0885 88.732 37.2245 89.111 37.2245ZM89.079 36.8555C88.483 36.8555 88.19 36.3845 88.19 35.7555C88.19 35.1495 88.472 34.6505 89.084 34.6505C89.615 34.6505 89.87 35.1275 89.87 35.7555C89.87 36.3895 89.615 36.8555 89.079 36.8555ZM91.062 38.0695C91.403 38.0695 91.62 37.9495 91.847 37.3695L93.045 34.3415H92.579L91.939 36.0865C91.853 36.3195 91.755 36.6335 91.755 36.6335H91.745C91.745 36.6335 91.641 36.3195 91.555 36.0865L90.894 34.3415H90.417L91.511 37.0615L91.403 37.3375C91.295 37.6085 91.17 37.6795 90.986 37.6795C90.8832 37.6847 90.7808 37.6641 90.688 37.6195H90.666V38.0095C90.786 38.0585 90.894 38.0695 91.062 38.0695ZM94.168 37.1425H94.905V33.2695H94.168V37.1425ZM96.707 37.2245C97.568 37.2245 98.159 36.5845 98.159 35.7555C98.159 34.9265 97.569 34.2875 96.707 34.2875C95.846 34.2875 95.255 34.9275 95.255 35.7555C95.255 36.5855 95.845 37.2245 96.707 37.2245ZM96.707 36.6605C96.252 36.6605 96.003 36.2975 96.003 35.7555C96.003 35.2145 96.252 34.8455 96.707 34.8455C97.157 34.8455 97.411 35.2145 97.411 35.7555C97.411 36.2975 97.157 36.6605 96.707 36.6605ZM99.726 38.0905C100.138 38.0905 100.495 37.9935 100.728 37.7765C100.934 37.5865 101.059 37.3215 101.059 36.9315V34.3635H100.349V34.6565H100.338C100.17 34.4235 99.916 34.2875 99.568 34.2875C98.865 34.2875 98.366 34.8185 98.366 35.6475C98.366 36.4875 98.973 36.9745 99.591 36.9745C99.943 36.9745 100.154 36.8345 100.316 36.6495H100.333V36.9535C100.333 37.3325 100.133 37.5335 99.715 37.5335C99.374 37.5335 99.217 37.3975 99.157 37.2235H98.426C98.501 37.7655 98.967 38.0905 99.726 38.0905ZM99.716 36.3845C99.336 36.3845 99.086 36.1085 99.086 35.6365C99.086 35.1705 99.336 34.8785 99.71 34.8785C100.154 34.8785 100.371 35.2245 100.371 35.6315C100.371 36.0435 100.181 36.3845 99.715 36.3845H99.716ZM102.85 37.2245C103.711 37.2245 104.302 36.5845 104.302 35.7555C104.302 34.9265 103.711 34.2875 102.85 34.2875C101.988 34.2875 101.398 34.9275 101.398 35.7555C101.398 36.5855 101.988 37.2245 102.85 37.2245ZM102.85 36.6605C102.395 36.6605 102.145 36.2975 102.145 35.7555C102.145 35.2145 102.395 34.8455 102.85 34.8455C103.299 34.8455 103.554 35.2145 103.554 35.7555C103.554 36.2975 103.299 36.6605 102.85 36.6605ZM104.644 37.1425H105.381V34.3635H104.644V37.1425ZM104.644 33.9305H105.381V33.2695H104.644V33.9305ZM105.856 38.0525H106.593V36.8295H106.603C106.761 37.0685 107.015 37.2255 107.405 37.2255C108.12 37.2255 108.608 36.6555 108.608 35.7565C108.608 34.8895 108.137 34.2885 107.4 34.2885C107.239 34.2859 107.08 34.3232 106.938 34.397C106.795 34.4708 106.673 34.5789 106.582 34.7115H106.566V34.3645H105.856V38.0545V38.0525ZM107.248 36.6125C106.809 36.6125 106.576 36.2815 106.576 35.7775C106.576 35.2795 106.761 34.8835 107.221 34.8835C107.676 34.8835 107.86 35.2515 107.86 35.7775C107.86 36.3035 107.622 36.6125 107.248 36.6125ZM110.078 37.2245C110.771 37.2245 111.248 36.8885 111.248 36.3305C111.248 35.6805 110.733 35.5505 110.267 35.4525C109.872 35.3715 109.504 35.3495 109.504 35.1115C109.504 34.9115 109.693 34.8015 109.98 34.8015C110.295 34.8015 110.484 34.9115 110.517 35.2085H111.183C111.129 34.6505 110.723 34.2885 109.991 34.2885C109.357 34.2885 108.859 34.5745 108.859 35.1765C108.859 35.7825 109.346 35.9185 109.845 36.0165C110.224 36.0915 110.576 36.1185 110.576 36.3845C110.576 36.5795 110.392 36.7045 110.067 36.7045C109.737 36.7045 109.509 36.5635 109.46 36.2435H108.778C108.821 36.8335 109.271 37.2245 110.078 37.2245ZM114.046 37.1425V34.3635H113.309V35.9675C113.309 36.3355 113.097 36.5955 112.751 36.5955C112.437 36.5955 112.29 36.4165 112.29 36.0915V34.3635H111.559V36.2165C111.559 36.8235 111.906 37.2185 112.523 37.2185C112.913 37.2185 113.13 37.0725 113.32 36.8185H113.336V37.1425H114.046ZM114.522 37.1425H115.259V35.5295C115.259 35.1605 115.459 34.9225 115.757 34.9225C116.028 34.9225 116.185 35.0855 116.185 35.3995V37.1435H116.922V35.5295C116.922 35.1605 117.112 34.9225 117.421 34.9225C117.692 34.9225 117.849 35.0855 117.849 35.3995V37.1435H118.586V35.2745C118.586 34.6675 118.255 34.2885 117.67 34.2885C117.318 34.2885 117.025 34.4725 116.836 34.7765H116.825C116.758 34.6289 116.65 34.5041 116.513 34.4174C116.376 34.3306 116.217 34.2859 116.055 34.2885C115.893 34.2845 115.732 34.3241 115.59 34.4032C115.448 34.4824 115.33 34.5982 115.248 34.7385H115.232V34.3645H114.522V37.1445V37.1425Z" fill="#E5708C"/>
<path d="M118.731 2.14869C118.731 0.965694 119.69 0.00569434 120.873 0.00569434H122.302C122.87 0.00569434 123.415 0.231474 123.817 0.633364C124.219 1.03525 124.445 1.58034 124.445 2.14869C124.445 2.71705 124.219 3.26213 123.817 3.66402C123.415 4.06591 122.87 4.29169 122.302 4.29169H120.873C120.592 4.29169 120.313 4.23626 120.053 4.12855C119.793 4.02084 119.557 3.86297 119.358 3.66396C119.159 3.46495 119.001 3.2287 118.894 2.96871C118.786 2.70871 118.731 2.43007 118.731 2.14869ZM58.74 14.2897C58.74 22.1777 52.346 28.5727 44.457 28.5727C36.569 28.5727 30.174 22.1777 30.174 14.2897C30.174 6.39969 36.569 0.00669434 44.457 0.00669434C52.346 0.00669434 58.74 6.39969 58.74 14.2897ZM27.388 14.2187C28.178 14.2187 28.824 14.8587 28.745 15.6447C28.475 18.3345 27.4473 20.8925 25.7811 23.0213C24.115 25.1502 21.8789 26.7625 19.3327 27.6708C16.7866 28.5792 14.0349 28.7463 11.3975 28.1528C8.76015 27.5593 6.34537 26.2294 4.43382 24.3179C2.52228 22.4064 1.19246 19.9916 0.598932 17.3542C0.00540188 14.7168 0.172528 11.9652 1.08089 9.419C1.98925 6.87284 3.60154 4.63675 5.73038 2.9706C7.85923 1.30445 10.4172 0.276669 13.107 0.00669434C13.892 -0.0733057 14.533 0.574694 14.533 1.36269V12.7897C14.533 13.5797 15.173 14.2187 15.962 14.2187H27.388ZM78.737 31.4297C79.8735 31.4297 80.9634 31.8811 81.767 32.6847C82.5706 33.4883 83.022 34.5782 83.022 35.7147C83.022 36.8511 82.5706 37.9411 81.767 38.7446C80.9634 39.5482 79.8735 39.9997 78.737 39.9997H71.596C70.4596 39.9997 69.3697 39.5482 68.5661 38.7446C67.7625 37.9411 67.311 36.8511 67.311 35.7147C67.311 34.5782 67.7625 33.4883 68.5661 32.6847C69.3697 31.8811 70.4596 31.4297 71.596 31.4297H78.737ZM74.452 28.5727C82.341 28.5727 88.736 22.1777 88.736 14.2897C88.7394 11.8666 88.1236 9.48291 86.947 7.36469L89.307 5.00469C89.5789 4.73273 89.7945 4.40988 89.9415 4.05459C90.0886 3.69929 90.1642 3.31851 90.1642 2.93399C90.1641 2.54946 90.0882 2.16872 89.941 1.81349C89.7938 1.45827 89.578 1.13553 89.306 0.863694C89.0341 0.591858 88.7112 0.376252 88.3559 0.229185C88.0006 0.0821186 87.6198 0.00647223 87.2353 0.0065651C86.8508 0.00665796 86.47 0.0824882 86.1148 0.229726C85.7596 0.376964 85.4369 0.592727 85.165 0.864694L83.105 2.92469C80.6198 1.0266 77.5782 0.000662512 74.451 0.00569434C66.564 0.00669434 60.17 6.39969 60.17 14.2897C60.17 22.1777 66.564 28.5727 74.452 28.5727ZM118.731 14.2897C118.731 22.1777 112.336 28.5727 104.447 28.5727C96.559 28.5727 90.164 22.1777 90.164 14.2897C90.164 6.39969 96.559 0.00669434 104.447 0.00669434C112.336 0.00669434 118.731 6.40069 118.731 14.2897Z" fill="url(#paint0_linear_3052_2459)"/>
</g>
<defs>
<linearGradient id="paint0_linear_3052_2459" x1="0.250026" y1="15.9997" x2="119.25" y2="15.9997" gradientUnits="userSpaceOnUse">
<stop stop-color="#64C2DB"/>
<stop offset="0.307" stop-color="#7476ED"/>
<stop offset="0.604" stop-color="#C994DF"/>
<stop offset="1" stop-color="#E56F8C"/>
</linearGradient>
<clipPath id="clip0_3052_2459">
<rect width="125" height="40" fill="white" transform="translate(0.25)"/>
</clipPath>
</defs>
</svg>
