<svg width="187" height="42" viewBox="0 0 187 42" fill="none" xmlns="http://www.w3.org/2000/svg">
<g clip-path="url(#clip0_3052_2462)">
<path fill-rule="evenodd" clip-rule="evenodd" d="M59.5372 3.22861C59.5372 1.83922 60.6758 0.712891 62.0805 0.712891H66.5111C67.5108 0.712891 68.4797 1.05559 69.2527 1.68265L70.6005 2.77593L70.6342 2.80634C70.6653 2.79596 70.6964 2.78582 70.7276 2.77593C73.1592 2.00554 76.1094 1.85903 79.1205 1.85903C82.1316 1.85903 85.0818 2.00554 87.5134 2.77593C87.5446 2.78582 87.5757 2.79596 87.6068 2.80634L87.6405 2.77593L88.9883 1.68265C89.7613 1.05559 90.7302 0.712891 91.7299 0.712891H96.1605C97.5652 0.712891 98.7038 1.83922 98.7038 3.22861V4.78379C98.7038 5.98704 98.1914 7.13463 97.2922 7.94503L96.2049 8.92502C95.6741 9.40344 95.037 9.75162 94.345 9.94144L94.0878 10.012C95.0953 12.3899 95.6519 14.9317 95.6519 16.9879C95.6519 25.2593 90.478 28.8316 85.9192 31.9792C82.3291 34.458 79.1205 36.6733 79.1205 40.7129C79.1205 36.6733 75.9119 34.458 72.3218 31.9792C67.763 28.8316 62.5891 25.2593 62.5891 16.9879C62.5891 14.9317 63.1457 12.3899 64.1532 10.012L63.896 9.94144C63.204 9.75162 62.5669 9.40344 62.0361 8.92502L60.9488 7.94503C60.0496 7.13463 59.5372 5.98704 59.5372 4.78379V3.22861ZM82.4268 23.7501C82.4268 24.1453 82.2526 24.5242 81.9426 24.8037C81.6326 25.0831 81.2121 25.2401 80.7736 25.2401C80.3951 25.2401 80.0299 25.123 79.7377 24.9112C80.2351 26.2282 81.508 27.4761 83.4441 25.4693C85.1533 23.6046 83.3681 19.6717 81.6289 17.3379C81.0492 16.56 80.0975 16.1856 79.1205 16.1856C78.1435 16.1856 77.1918 16.56 76.6121 17.3379C74.8729 19.6717 73.0877 23.6046 74.7969 25.4693C76.733 27.4761 78.0059 26.2282 78.5033 24.9112C78.2111 25.123 77.8459 25.2401 77.4674 25.2401C77.0289 25.2401 76.6084 25.0831 76.2984 24.8037C75.9884 24.5242 75.8142 24.1453 75.8142 23.7501H82.4268ZM72.7898 12.108H68.1844L71.8139 14.9827C72.6126 15.6152 73.78 15.413 74.2742 14.5565C74.8982 13.4751 74.0694 12.108 72.7898 12.108ZM85.4512 12.108H90.0566L86.4271 14.9827C85.6284 15.6152 84.461 15.413 83.9668 14.5565C83.3428 13.4751 84.1716 12.108 85.4512 12.108Z" fill="#72B800"/>
<path d="M104.19 29.0467H108.27V13.6567H104.19V29.0467ZM104.19 11.2567H108.27V7.59668H104.19V11.2567Z" fill="#355030"/>
<path d="M110.899 34.0863H114.979V27.3063H115.039C115.909 28.6263 117.319 29.4963 119.479 29.4963C123.439 29.4963 126.139 26.3463 126.139 21.3663C126.139 16.5663 123.529 13.2363 119.449 13.2363C117.349 13.2363 115.909 14.2263 114.919 15.5763H114.829V13.6563H110.899V34.0863ZM118.609 26.1063C116.179 26.1063 114.889 24.2763 114.889 21.4863C114.889 18.7263 115.909 16.5363 118.459 16.5363C120.979 16.5363 121.999 18.5763 121.999 21.4863C121.999 24.3963 120.679 26.1063 118.609 26.1063Z" fill="#355030"/>
<path d="M134.278 29.4963C138.118 29.4963 140.758 27.6363 140.758 24.5463C140.758 20.9463 137.908 20.2263 135.328 19.6863C133.138 19.2363 131.098 19.1163 131.098 17.7963C131.098 16.6863 132.148 16.0863 133.738 16.0863C135.478 16.0863 136.528 16.6863 136.708 18.3363H140.398C140.098 15.2463 137.848 13.2363 133.798 13.2363C130.288 13.2363 127.528 14.8263 127.528 18.1563C127.528 21.5163 130.228 22.2663 132.988 22.8063C135.088 23.2263 137.038 23.3763 137.038 24.8463C137.038 25.9263 136.018 26.6163 134.218 26.6163C132.388 26.6163 131.128 25.8363 130.858 24.0663H127.078C127.318 27.3363 129.808 29.4963 134.278 29.4963Z" fill="#355030"/>
<path d="M156.249 29.0463V13.6562H152.169V22.5363C152.169 24.5763 150.999 26.0163 149.079 26.0163C147.339 26.0163 146.529 25.0262 146.529 23.2262V13.6562H142.479V23.9163C142.479 27.2762 144.399 29.4662 147.819 29.4662C149.979 29.4662 151.179 28.6562 152.229 27.2463H152.319V29.0463H156.249Z" fill="#355030"/>
<path d="M158.888 29.0463H162.968V20.1063C162.968 18.0663 164.078 16.7463 165.728 16.7463C167.228 16.7463 168.098 17.6463 168.098 19.3863V29.0463H172.178V20.1063C172.178 18.0663 173.228 16.7463 174.938 16.7463C176.438 16.7463 177.308 17.6463 177.308 19.3863V29.0463H181.388V18.6963C181.388 15.3363 179.558 13.2363 176.318 13.2363C174.368 13.2363 172.748 14.2563 171.698 15.9363H171.638C170.888 14.3163 169.328 13.2363 167.378 13.2363C165.248 13.2363 163.748 14.3163 162.908 15.7263H162.818V13.6563H158.888V29.0463Z" fill="#355030"/>
<path d="M1.18408 29.0467H5.26408V7.59668H1.18408V29.0467Z" fill="#355030"/>
<path d="M15.2403 29.4963C20.0103 29.4963 23.2803 25.9563 23.2803 21.3663C23.2803 16.7763 20.0103 13.2363 15.2403 13.2363C10.4703 13.2363 7.20026 16.7763 7.20026 21.3663C7.20026 25.9563 10.4703 29.4963 15.2403 29.4963ZM15.2403 26.3763C12.7203 26.3763 11.3403 24.3663 11.3403 21.3663C11.3403 18.3663 12.7203 16.3263 15.2403 16.3263C17.7303 16.3263 19.1403 18.3663 19.1403 21.3663C19.1403 24.3663 17.7303 26.3763 15.2403 26.3763Z" fill="#355030"/>
<path d="M31.9568 34.2963C34.2368 34.2963 36.2168 33.7563 37.5068 32.5563C38.6468 31.5063 39.3368 30.0363 39.3368 27.8763V13.6563H35.4068V15.2763H35.3468C34.4168 13.9863 33.0068 13.2363 31.0868 13.2363C27.1868 13.2363 24.4268 16.1763 24.4268 20.7663C24.4268 25.4163 27.7868 28.1163 31.2068 28.1163C33.1568 28.1163 34.3268 27.3363 35.2268 26.3163H35.3168V27.9963C35.3168 30.0963 34.2068 31.2063 31.8968 31.2063C30.0068 31.2063 29.1368 30.4563 28.8068 29.4963H24.7568C25.1768 32.4963 27.7568 34.2963 31.9568 34.2963ZM31.8968 24.8463C29.7968 24.8463 28.4168 23.3163 28.4168 20.7063C28.4168 18.1263 29.7968 16.5063 31.8668 16.5063C34.3268 16.5063 35.5268 18.4263 35.5268 20.6763C35.5268 22.9563 34.4768 24.8463 31.8968 24.8463Z" fill="#355030"/>
<path d="M49.2539 29.4963C54.0239 29.4963 57.2939 25.9563 57.2939 21.3663C57.2939 16.7763 54.0239 13.2363 49.2539 13.2363C44.4839 13.2363 41.2139 16.7763 41.2139 21.3663C41.2139 25.9563 44.4839 29.4963 49.2539 29.4963ZM49.2539 26.3763C46.7339 26.3763 45.3539 24.3663 45.3539 21.3663C45.3539 18.3663 46.7339 16.3263 49.2539 16.3263C51.7439 16.3263 53.1539 18.3663 53.1539 21.3663C53.1539 24.3663 51.7439 26.3763 49.2539 26.3763Z" fill="#355030"/>
<path d="M181.204 10.2959C181.204 9.60554 181.763 9.0459 182.454 9.0459H184.954C185.644 9.0459 186.204 9.60554 186.204 10.2959C186.204 10.9862 185.644 11.5459 184.954 11.5459H182.454C181.763 11.5459 181.204 10.9862 181.204 10.2959Z" fill="#355030"/>
</g>
<defs>
<clipPath id="clip0_3052_2462">
<rect width="186" height="41" fill="white" transform="translate(0.5 0.5)"/>
</clipPath>
</defs>
</svg>
