<svg width="41" height="35" viewBox="0 0 41 35" fill="none" xmlns="http://www.w3.org/2000/svg">
<path d="M14.2811 18.7931V2.3703L10.696 3.82211V17.3413L11.0346 17.481L14.2811 18.7931Z" fill="#B397AE"/>
<path d="M17.447 20.0714V30.2594C18.3274 30.2001 19.212 30.1663 20.1051 30.1621V13.6842L21.049 13.3033L24.0796 12.0758L24.5706 11.8769L24.7315 11.8134L26.1621 11.2335L29.0319 10.0738L29.5906 9.84944V3.81787L20.1432 0L15.9825 1.68461V19.483L16.4989 19.6904L17.4428 20.0714H17.447Z" fill="#85627E"/>
<path d="M24.5707 30.361V13.5107L21.6163 14.7043V30.1748C22.6067 30.2002 23.5929 30.2636 24.5707 30.3568V30.361Z" fill="#B397AE"/>
<path d="M37.548 33.6032H37.5819V14.7043L29.5991 11.4748H29.5906L26.1579 12.8673V30.5345C30.1239 31.0552 33.9418 32.1006 37.5438 33.599L37.548 33.6032Z" fill="#85627E"/>
<path d="M6.54376 32.3757V20.4692L4.9946 21.0914V32.909C5.50675 32.7186 6.02314 32.5408 6.54376 32.3715V32.3757Z" fill="#B397AE"/>
<path d="M15.9318 30.3864V21.0957L14.2768 20.4269L10.6917 18.9751L10.4631 18.8862L8.05475 19.8639V31.9144C10.6028 31.1779 13.2355 30.6657 15.9318 30.3948V30.3864Z" fill="#85627E"/>
<path d="M40.6041 34.9915C40.6041 34.9915 39.9819 34.7503 38.9068 34.2974C38.3734 34.0476 37.7004 33.8529 36.947 33.5736C36.2021 33.2815 35.3259 33.0487 34.3863 32.7651C34.1535 32.6932 33.9122 32.6212 33.6667 32.5493C33.417 32.49 33.1672 32.4308 32.9091 32.3715C32.3969 32.2488 31.8678 32.1175 31.3218 31.9863C30.7758 31.8636 30.2086 31.7789 29.633 31.6731C29.0573 31.5715 28.4732 31.4445 27.8679 31.3853C27.2669 31.3091 26.6532 31.2244 26.0352 31.144C25.4172 31.0763 24.7823 31.0467 24.1516 30.9916C23.8342 30.9662 23.5167 30.9409 23.1993 30.9155C22.8818 30.8985 22.5602 30.8985 22.2385 30.8901C21.5951 30.8731 20.9517 30.8562 20.3041 30.8393C19.6565 30.8562 19.0089 30.8731 18.3613 30.8901C18.0354 30.9028 17.7095 30.9028 17.3878 30.9197C17.0704 30.9451 16.7529 30.9705 16.4397 30.9959C15.809 31.0509 15.1826 31.0848 14.5646 31.1483C13.9467 31.2287 13.3329 31.3091 12.7319 31.3895C12.1266 31.4488 11.5425 31.58 10.9669 31.6773C10.3912 31.7874 9.82404 31.8678 9.27803 31.9906C8.73201 32.1218 8.20293 32.2487 7.69077 32.3757C7.43258 32.435 7.18285 32.4942 6.93312 32.5535C6.68763 32.6255 6.4506 32.6974 6.21357 32.7694C5.27391 33.053 4.40198 33.2858 3.6528 33.5778C2.89938 33.8572 2.22216 34.0561 1.6973 34.3016C0.626436 34.7503 0 34.9958 0 34.9958C0 34.9958 0.571411 34.6275 1.58725 34.0095C2.09094 33.6794 2.73431 33.3746 3.47079 33.0022C3.65703 32.909 3.84327 32.8159 4.04221 32.7186C4.13956 32.6678 4.24114 32.6212 4.33849 32.5704C4.44008 32.5281 4.54589 32.4815 4.65171 32.4392C5.07921 32.2657 5.52364 32.0837 5.98924 31.8932C6.22203 31.8001 6.4633 31.7027 6.70456 31.6012C6.95005 31.5165 7.20401 31.4318 7.45798 31.3472C7.97436 31.1821 8.50345 31.0086 9.05369 30.835C9.60394 30.67 10.1754 30.543 10.7595 30.3906C11.3436 30.2425 11.9404 30.0901 12.5541 29.997C13.1679 29.8911 13.7901 29.7811 14.425 29.6753C15.0599 29.5822 15.7117 29.5314 16.3635 29.4594C16.6894 29.4256 17.0196 29.3917 17.3497 29.3621C17.6757 29.3367 18.0016 29.3367 18.3275 29.3197C18.9836 29.2986 19.6439 29.2774 20.3041 29.252C20.9644 29.2732 21.629 29.2943 22.2893 29.3197C22.6194 29.3324 22.9496 29.3367 23.2755 29.3621C23.6014 29.3959 23.9273 29.4298 24.2532 29.4594C24.9008 29.5271 25.5484 29.5822 26.1833 29.6753C26.814 29.7853 27.4404 29.8911 28.0542 30.0012C28.6679 30.0943 29.2647 30.2467 29.8488 30.3991C30.4329 30.5514 31.0044 30.6784 31.5546 30.8435C32.1006 31.0213 32.6339 31.1906 33.1503 31.3557C33.4085 31.4403 33.6582 31.5292 33.9037 31.6096C34.145 31.707 34.3863 31.8043 34.6191 31.9017C35.0847 32.0921 35.5333 32.2741 35.9566 32.4477C36.0624 32.4942 36.1682 32.5366 36.2698 32.5789C36.3714 32.6297 36.4687 32.6805 36.5703 32.727C36.765 32.8244 36.9597 32.9217 37.1417 33.0149C37.8782 33.3873 38.5258 33.6963 39.0253 34.018C40.0369 34.6317 40.6125 35 40.6125 35L40.6041 34.9915Z" fill="#85627E"/>
</svg>
